<svg width="832" height="859" viewBox="0 0 832 859" fill="none" xmlns="http://www.w3.org/2000/svg">
<path fill-rule="evenodd" clip-rule="evenodd" d="M580.7 210.5L577.4 213.3C532.5 258.8 456.6 199.6 456.6 199.6C450.8 207.5 437.5 244.2 467.3 271.4C497.1 298.6 528.3 288 528.3 288C553.2 310.8 566.5 360.9 536.4 389.4C536.101 389.649 535.826 389.899 535.552 390.148L535.55 390.15C535.46 390.232 535.37 390.313 535.28 390.395C535.093 390.563 534.902 390.732 534.7 390.9C534.414 391.134 534.128 391.375 533.839 391.618L533.839 391.618C533.02 392.307 532.187 393.008 531.3 393.6C531.25 393.65 531.175 393.7 531.1 393.75L531.1 393.75L531.078 393.765C531.062 393.776 531.045 393.787 531.029 393.798C531.016 393.807 531.003 393.816 530.99 393.825C530.956 393.85 530.925 393.875 530.9 393.9L530.899 393.9C530.5 394.2 530.1 394.5 529.7 394.7C470.7 435.6 391 423.4 391 423.4C392.121 423.892 393.538 424.57 395.237 425.382C415.966 435.29 478.571 465.216 555.1 422.7C587.2 403.9 595.2 372.8 595.2 372.8C595.2 372.8 613.7 305 569.5 252.3L832 0.699951L814.9 12.5C805.1 17.6 792.3 22.1 778.8 21.4C750.5 20.1 740.1 34.6 740.1 34.6C740.1 34.6 753.4 45.6 771.9 45.9L771 46.7C757.9 57.8999 740.5 62.8 723.5 59.5C723.4 59.5 723.325 59.4749 723.25 59.45C723.175 59.425 723.1 59.3999 723 59.3999C693.7 53.5999 674.4 74.3 674.4 74.3C674.4 74.3 694.3 90.7999 721.4 89.3999L715 94.8999C696.8 106.8 676.7 112.3 648.4 106.8C608.7 99 582.5 127 582.5 127C582.5 127 614 153 655.2 146.5L648.3 152.4C629.8 162.9 608.5 167.8 576.1 161.4C528.1 152 501.7 178.8 501.7 178.8C501.7 178.8 531.1 218.2 580.7 210.5ZM214.1 147.5C160.8 191.5 179 260 179 260C179 260 193.3 172.9 288.5 139.7C405.2 99.1001 490.2 169.9 490.2 169.9C410.4 72.0001 290.8 113.1 290.8 113.1C290.8 113.1 231.6 135.9 221 127.4C210.5 118.9 217.6 102.1 217.6 102.1C207.9 104.2 194.9 116.5 198.7 131.2C202.3 145 214.1 147.5 214.1 147.5ZM159.6 659.2C159.6 659.2 187.1 581.3 273.8 544.9C273.8 544.9 115.2 711.9 182.1 858C182.1 858 56.1 801.5 72.8 663.5C72.8 663.5 78.2 610.8 125 550.7C171.8 490.6 129.4 474.9 129.4 474.9C129.4 474.9 105.3 463.2 92.7 484.7C82.6 502 98.9 518.5 115.4 514.1C115.4 514.1 84.2 533 71.7 509.7C50.8 470.7 102.4 433.9 141.5 448C176.4 460.6 191 491.2 166.4 565.6C166.4 565.6 141.9 623.7 159.6 659.2ZM425.6 574.9C550.7 514.9 552.8 444.9 552.8 444.9C528.108 473.03 502.145 475.673 472.6 478.681C449.736 481.008 424.726 483.554 396.5 498.3C268.6 565.2 331.3 717.7 331.3 717.7C331.3 717.7 322.9 624.2 425.6 574.9ZM520.5 583.4C520.5 583.4 488.8 679.8 558.4 722.9C644.6 776.3 713.2 737 713.2 737C713.2 737 666.6 848 546 835C467.332 826.488 441.438 836.547 416.898 846.081C397.329 853.683 378.621 860.951 334.7 858.2C235.7 852 178.3 775.1 178.3 775.1C178.3 775.1 250.8 822.2 321.7 797.1C321.7 797.1 261.4 764.1 294 663C294 663 285.8 787.3 380.8 765.6C427.006 755.094 435.74 719.489 444.961 681.899C454.698 642.205 464.978 600.298 520.5 583.4ZM185.1 158.7C76.8 221.1 -3.69998 332 0.60002 465.6C2.80002 533.8 24.4 596.8 60 649.5C42.1 603.1 31.6 552.9 29.9 500.4C25.4 363 91.6 245.4 185.1 158.7ZM256.2 318.9C256.2 290.4 279.3 267.2 307.9 267.2C336.5 267.2 359.7 290.3 359.6 318.9C359.6 347.4 336.5 370.6 307.9 370.6C279.4 370.6 256.2 347.5 256.2 318.9ZM298.7 308.5C298.7 318 306.4 325.7 315.9 325.7C325.4 325.7 333.1 318 333.1 308.5C333.1 299 325.4 291.3 315.9 291.3C306.4 291.3 298.7 299 298.7 308.5Z" fill="url(#paint0_linear_2301_27861)"/>
<defs>
<linearGradient id="paint0_linear_2301_27861" x1="416.211" y1="877.359" x2="416.211" y2="-130.869" gradientUnits="userSpaceOnUse">
<stop offset="0.0858" stop-color="#8D29C1"/>
<stop offset="0.2383" stop-color="#942BBB"/>
<stop offset="0.4667" stop-color="#A92FAC"/>
<stop offset="0.7413" stop-color="#CA3793"/>
<stop offset="1" stop-color="#F03F77"/>
</linearGradient>
</defs>
</svg>
